<svg width="23" height="20" viewBox="0 0 23 20" fill="none" xmlns="http://www.w3.org/2000/svg">
<path fill-rule="evenodd" clip-rule="evenodd" d="M10.7925 4.37361L12.0672 3.25079C13.0933 2.34552 14.8953 1.71815 16.6846 1.49218C17.4778 1.38332 18.2846 1.37387 19.0809 1.46411C19.7867 1.55675 20.2185 1.7392 20.4193 1.91745C20.6216 2.09429 20.8287 2.47465 20.9339 3.09641C21.0359 3.69571 21.0279 4.42975 20.902 5.2073C20.6471 6.78345 19.9333 8.37083 18.9056 9.2747L11.8218 15.5162L9.9959 13.9077C9.92193 13.8425 9.8341 13.7907 9.73742 13.7553C9.64074 13.72 9.53711 13.7018 9.43243 13.7017C9.32775 13.7016 9.22409 13.7197 9.12735 13.755C9.03062 13.7902 8.94271 13.8419 8.86864 13.907C8.71905 14.0386 8.63492 14.2171 8.63477 14.4034C8.6347 14.4956 8.65524 14.5869 8.69523 14.6721C8.73522 14.7573 8.79387 14.8348 8.86784 14.9L11.2578 17.0053C11.3318 17.0706 11.4197 17.1225 11.5165 17.1579C11.6133 17.1932 11.717 17.2115 11.8218 17.2115C11.9266 17.2115 12.0304 17.1932 12.1271 17.1579C12.2239 17.1225 12.3118 17.0706 12.3858 17.0053L13.2574 16.2362L15.1215 18.9744C15.1837 19.0661 15.2688 19.1441 15.3704 19.2024C15.4719 19.2608 15.5872 19.2979 15.7076 19.311C15.8279 19.3242 15.95 19.3129 16.0646 19.2782C16.1793 19.2434 16.2834 19.1861 16.3691 19.1106L19.5557 16.3035C19.6432 16.2263 19.7091 16.1322 19.7481 16.0287C19.7871 15.9251 19.7981 15.815 19.7803 15.707L19.0395 11.1428L20.0337 10.2684C21.396 9.06698 22.1974 7.14556 22.4794 5.4052C22.6228 4.52519 22.6387 3.6508 22.5097 2.88728C22.3822 2.14622 22.1018 1.41359 21.5473 0.923759C20.9913 0.435334 20.1596 0.186911 19.3167 0.0760334C18.3677 -0.0340114 17.4058 -0.0245599 16.4599 0.104104C14.4826 0.34972 12.2998 1.05569 10.9391 2.2557L9.9465 3.1315L4.76509 2.47886C4.64253 2.46321 4.51751 2.47295 4.39996 2.5073C4.28242 2.54165 4.17558 2.59967 4.08794 2.67675L0.901342 5.48379C0.815572 5.55927 0.75049 5.651 0.711052 5.75198C0.671615 5.85297 0.658863 5.96055 0.673768 6.06654C0.688673 6.17252 0.730842 6.27411 0.797062 6.36357C0.863282 6.45303 0.951806 6.52799 1.05589 6.58275L4.16283 8.22487L3.29129 8.99259C3.2171 9.05778 3.15824 9.13522 3.11808 9.22048C3.07792 9.30573 3.05724 9.39713 3.05724 9.48944C3.05724 9.58174 3.07792 9.67314 3.11808 9.7584C3.15824 9.84366 3.2171 9.9211 3.29129 9.98628L5.68124 12.0916C5.75531 12.1568 5.84324 12.2086 5.94002 12.2439C6.03679 12.2792 6.14052 12.2974 6.24527 12.2974C6.35002 12.2974 6.45374 12.2792 6.55052 12.2439C6.64729 12.2086 6.73523 12.1568 6.8093 12.0916C6.88337 12.0263 6.94212 11.9489 6.98221 11.8636C7.02229 11.7784 7.04292 11.687 7.04292 11.5947C7.04292 11.5024 7.02229 11.4111 6.98221 11.3258C6.94212 11.2406 6.88337 11.1631 6.8093 11.0979L4.98178 9.49084L6.01265 8.58417L10.7925 4.37361ZM15.9628 17.4825L14.4173 15.213L17.631 12.3835L18.1472 15.5583L15.9628 17.4825ZM5.32593 7.2031L8.53803 4.37361L4.93398 3.91887L2.75116 5.84169L5.32593 7.2031ZM3.6211 13.4965C3.69517 13.4313 3.75395 13.354 3.79407 13.2688C3.8342 13.1836 3.85489 13.0923 3.85497 13.0001C3.85504 12.9079 3.8345 12.8166 3.79451 12.7314C3.75452 12.6462 3.69587 12.5687 3.6219 12.5035C3.54794 12.4382 3.46011 12.3865 3.36343 12.3511C3.26675 12.3158 3.16311 12.2976 3.05844 12.2975C2.95376 12.2974 2.85009 12.3155 2.75336 12.3507C2.65662 12.386 2.56871 12.4376 2.49464 12.5028L0.901342 13.9063C0.751963 14.0381 0.668127 14.2167 0.668277 14.403C0.668426 14.5892 0.752549 14.7677 0.902138 14.8993C1.05173 15.0309 1.25453 15.1047 1.46593 15.1046C1.67734 15.1045 1.88002 15.0304 2.0294 14.8986L3.6211 13.4965ZM6.01105 15.6018C6.08714 15.537 6.14783 15.4596 6.18958 15.374C6.23134 15.2884 6.25331 15.1963 6.25423 15.1031C6.25515 15.0099 6.23499 14.9175 6.19494 14.8313C6.15488 14.745 6.09573 14.6667 6.02093 14.6008C5.94613 14.5349 5.85718 14.4828 5.75928 14.4475C5.66137 14.4122 5.55647 14.3945 5.45069 14.3953C5.34491 14.3961 5.24037 14.4154 5.14318 14.4522C5.04599 14.489 4.95808 14.5425 4.88459 14.6095L1.69799 17.4165C1.54861 17.5483 1.46478 17.7269 1.46493 17.9132C1.46508 18.0994 1.5492 18.2779 1.69879 18.4095C1.84838 18.5411 2.05118 18.6149 2.26258 18.6148C2.47398 18.6147 2.67667 18.5406 2.82605 18.4088L6.01105 15.6018ZM8.401 17.707C8.47507 17.6419 8.53385 17.5645 8.57397 17.4794C8.6141 17.3942 8.63479 17.3029 8.63486 17.2107C8.63494 17.1185 8.61439 17.0272 8.5744 16.942C8.53442 16.8567 8.47576 16.7793 8.4018 16.7141C8.32783 16.6488 8.24 16.597 8.14333 16.5617C8.04665 16.5263 7.94301 16.5081 7.83833 16.508C7.73366 16.508 7.62999 16.5261 7.53326 16.5613C7.43652 16.5965 7.34861 16.6482 7.27454 16.7134L5.68124 18.1169C5.53186 18.2486 5.44803 18.4273 5.44818 18.6135C5.44832 18.7997 5.53245 18.9783 5.68204 19.1099C5.83163 19.2414 6.03443 19.3153 6.24583 19.3152C6.45723 19.315 6.65992 19.2409 6.8093 19.1092L8.401 17.707ZM15.0084 8.4368C15.2698 8.4368 15.5285 8.39146 15.77 8.30336C16.0114 8.21526 16.2308 8.08614 16.4156 7.92336C16.6004 7.76058 16.747 7.56733 16.847 7.35464C16.947 7.14196 16.9984 6.91401 16.9984 6.6838C16.9984 6.4536 16.947 6.22564 16.847 6.01296C16.747 5.80028 16.6004 5.60703 16.4156 5.44425C16.2308 5.28147 16.0114 5.15234 15.77 5.06425C15.5285 4.97615 15.2698 4.93081 15.0084 4.93081C14.4806 4.93081 13.9745 5.1155 13.6013 5.44425C13.228 5.773 13.0184 6.21888 13.0184 6.6838C13.0184 7.14873 13.228 7.59461 13.6013 7.92336C13.9745 8.25211 14.4806 8.4368 15.0084 8.4368Z" fill="#BA4848"/>
</svg>
