<svg width="13" height="12" viewBox="0 0 13 12" fill="none" xmlns="http://www.w3.org/2000/svg">
<path d="M5.94361 0.469054C6.09298 0.00775813 6.74561 0.0077575 6.89498 0.469054L7.98534 3.8364C8.05212 4.04266 8.24422 4.18237 8.46102 4.18237H11.9931C12.4771 4.18237 12.6788 4.8013 12.2877 5.0864L9.42719 7.17184C9.25255 7.29916 9.17949 7.52428 9.24606 7.7299L10.338 11.1021C10.4872 11.563 9.95926 11.9455 9.56774 11.6601L6.71385 9.57949C6.53833 9.45153 6.30026 9.45153 6.12474 9.57949L3.27085 11.6601C2.87933 11.9455 2.35135 11.563 2.50061 11.1021L3.59253 7.7299C3.65911 7.52428 3.58604 7.29917 3.4114 7.17184L0.550895 5.0864C0.159842 4.8013 0.361503 4.18237 0.845448 4.18237H4.37757C4.59437 4.18237 4.78647 4.04266 4.85325 3.8364L5.94361 0.469054Z" fill="#BA4848"/>
</svg>
