<svg width="36" height="35" viewBox="0 0 36 35" fill="none" xmlns="http://www.w3.org/2000/svg">
<path d="M7.56 11.2C3.40524 11.2 0 14.5005 0 18.529C0 20.09 0.51264 21.5408 1.3806 22.7332L6.63768 31.5686C7.37388 32.5038 7.86348 32.3264 8.47584 31.5196L14.274 21.9261C14.391 21.7196 14.4828 21.5005 14.5631 21.2765C14.931 20.4047 15.1202 19.4714 15.12 18.529C15.12 14.5005 11.7158 11.2 7.56 11.2ZM7.56 14.6342C9.79776 14.6342 11.5776 16.3601 11.5776 18.5294C11.5776 20.6987 9.79776 22.4238 7.56 22.4238C5.3226 22.4238 3.5424 20.6983 3.5424 18.5294C3.5424 16.3601 5.3226 14.6342 7.56 14.6342ZM31.59 0C29.1665 0 27.18 1.92535 27.18 4.2756C27.18 5.18595 27.4788 6.03225 27.9853 6.7277L31.0522 11.8818C31.4816 12.4271 31.7671 12.3235 32.1242 11.8531L35.5064 6.2566C35.5748 6.13655 35.6285 6.0088 35.6749 5.8779C35.8896 5.36949 36.0001 4.82519 36 4.2756C36 1.925 34.0142 0 31.59 0ZM31.59 2.0034C32.8954 2.0034 33.9336 3.01 33.9336 4.2756C33.9336 5.54085 32.8954 6.5471 31.59 6.5471C30.285 6.5471 29.2464 5.54085 29.2464 4.2756C29.2464 3.01 30.285 2.0034 31.59 2.0034Z" fill="white"/>
<path d="M32 14.109C25.6 13.7775 13.623 14.0096 16.9144 17.5899C18.9714 19.8275 29.9427 21.0709 29.9427 24.5518C29.9427 30.5191 11.4286 34 8 34" stroke="white" stroke-width="2" stroke-linecap="round" stroke-linejoin="round" stroke-dasharray="4 4"/>
</svg>
