<svg width="128" height="128" viewBox="0 0 128 128" fill="none" xmlns="http://www.w3.org/2000/svg">
<rect width="128" height="128" fill="#F8F8F8"/>
<path d="M83.7229 46.4993H86.5671V115.781H83.7229V46.4993ZM95.0996 46.4993H97.9437V115.781H95.0996V46.4993ZM89.4113 46.4993H92.2554V115.781H89.4113V46.4993ZM80.8788 46.4993V81.0786C75.8752 82.9975 70.6872 83.9569 65.3149 83.9569C60.6537 83.9569 56.1899 83.0907 51.9237 81.3585C47.6575 79.6262 43.9048 77.2276 40.6656 74.1628C37.4264 71.0713 34.8324 67.2602 32.8837 62.7296C30.9612 58.1723 30 53.2553 30 47.9785C30 43.1014 30.9349 38.4508 32.8047 34.0268C34.7008 29.5761 37.2289 25.7518 40.3891 22.5537C43.5756 19.3289 47.3546 16.7705 51.7262 14.8783C56.1241 12.9594 60.7327 12 65.5519 12C71.5563 12 77.1393 13.4125 82.3009 16.2375C87.4625 19.0624 91.676 22.9001 94.9416 27.7506L92.5714 29.3096C89.5693 24.859 85.6849 21.3411 80.9183 18.756C76.178 16.1708 71.0559 14.8783 65.5519 14.8783C61.1277 14.8783 56.8878 15.7578 52.8323 17.5167C48.803 19.249 45.3268 21.5942 42.4037 24.5525C39.4805 27.5107 37.1499 31.0419 35.4118 35.1461C33.7 39.2237 32.8442 43.5011 32.8442 47.9785C32.8442 52.8022 33.7264 57.3062 35.4908 61.4904C37.2816 65.6745 39.6517 69.1791 42.6012 72.0041C45.577 74.829 49.0269 77.0544 52.9508 78.6801C56.8746 80.2791 60.9565 81.0786 65.1964 81.0786C69.647 81.0786 73.9264 80.3724 78.0346 78.9599V78.2703V77.5807V76.2015C74.1108 77.5341 69.9894 78.2003 65.6705 78.2003C62.5366 78.2003 59.4818 77.7606 56.506 76.8811C53.5565 75.975 50.8176 74.6558 48.2895 72.9235C45.7877 71.1646 43.5887 69.0858 41.6926 66.6872C39.8229 64.262 38.3481 61.4504 37.2684 58.2523C36.215 55.0276 35.6883 51.6029 35.6883 47.9785C35.6883 42.5151 37.0182 37.4647 39.678 32.8275C42.3642 28.1903 45.9984 24.5258 50.5806 21.8341C55.1629 19.1157 60.1533 17.7566 65.5519 17.7566C70.6082 17.7566 75.309 18.9558 79.6542 21.3544C83.9995 23.7263 87.5415 26.951 90.2803 31.0286L87.9102 32.5877C85.4347 28.9099 82.2219 26.0049 78.2716 23.8729C74.3478 21.7142 70.1079 20.6348 65.5519 20.6348C61.8914 20.6348 58.3889 21.3544 55.0444 22.7935C51.6999 24.2327 48.8162 26.1782 46.3934 28.63C43.9969 31.0553 42.0877 33.9602 40.6656 37.3448C39.2435 40.7295 38.5325 44.274 38.5325 47.9785C38.5325 51.3098 39.0065 54.4413 39.9545 57.3728C40.9289 60.2778 42.2588 62.8229 43.9443 65.0083C45.656 67.167 47.6443 69.0325 49.9091 70.6049C52.1739 72.1506 54.6362 73.3233 57.296 74.1228C59.9821 74.9223 62.7341 75.3221 65.5519 75.3221C69.9235 75.3221 74.0844 74.5758 78.0346 73.0834V70.2051C74.1371 71.7242 70.0684 72.4838 65.8285 72.4838C62.6156 72.4838 59.5476 71.9374 56.6245 70.8448C53.7013 69.7254 51.0942 68.153 48.803 66.1276C46.5382 64.1021 44.7343 61.517 43.3912 58.3722C42.0482 55.2274 41.3766 51.7629 41.3766 47.9785C41.3766 43.5544 42.4564 39.4635 44.6158 35.7058C46.7753 31.948 49.7116 28.9765 53.4248 26.7911C57.138 24.6058 61.1804 23.5131 65.5519 23.5131C69.6338 23.5131 73.426 24.4725 76.9286 26.3914C80.4574 28.3102 83.3279 30.922 85.54 34.2267L83.1699 35.7857C81.2211 32.9075 78.693 30.6288 75.5855 28.9498C72.5043 27.2442 69.1598 26.3914 65.5519 26.3914C61.6807 26.3914 58.1124 27.3641 54.8469 29.3096C51.5814 31.2285 48.9874 33.8402 47.0649 37.1449C45.1688 40.4496 44.2208 44.0608 44.2208 47.9785C44.2208 50.6968 44.6026 53.2286 45.3663 55.5739C46.1301 57.9192 47.1834 59.9446 48.5265 61.6503C49.8696 63.3559 51.4365 64.8084 53.2273 66.0076C55.0444 67.2069 56.9931 68.1131 59.0736 68.726C61.154 69.3123 63.3135 69.6055 65.5519 69.6055C70.0025 69.6055 74.1634 68.7127 78.0346 66.9271V64.1687C74.2951 65.8477 70.2527 66.6872 65.9075 66.6872C63.4057 66.6872 61.0487 66.3008 58.8366 65.5279C56.6245 64.7551 54.623 63.6224 52.8323 62.13C51.0678 60.6375 49.6589 58.6787 48.6055 56.2535C47.5785 53.8016 47.0649 51.0433 47.0649 47.9785C47.0649 45.4466 47.5521 43.0347 48.5265 40.7428C49.5009 38.4241 50.8176 36.4254 52.4767 34.7464C54.1358 33.0674 56.0978 31.7348 58.3626 30.7487C60.6537 29.7627 63.0501 29.2697 65.5519 29.2697C68.6858 29.2697 71.5958 30.0159 74.2819 31.5083C76.9681 32.9741 79.1539 34.9729 80.8393 37.5047L78.5087 39.0638C77.0866 36.9317 75.23 35.2527 72.9389 34.0268C70.6741 32.7742 68.2118 32.1479 65.5519 32.1479C61.233 32.1479 57.5462 33.6937 54.4913 36.7851C51.4365 39.8766 49.9091 43.6077 49.9091 47.9785C49.9091 50.6702 50.3436 53.0554 51.2127 55.1342C52.0817 57.1863 53.2668 58.8386 54.7679 60.0912C56.2953 61.3171 57.9807 62.2499 59.8241 62.8895C61.6939 63.5025 63.6953 63.809 65.8285 63.809C70.2 63.809 78.0346 64.1687 78.0346 46.4993H80.8788Z" fill="#BA4848"/>
<path d="M78.0346 46.4993H80.8788L80.8788 115.781H78.0346V46.4993Z" fill="#BA4848"/>
</svg>
