<svg width="29" height="30" viewBox="0 0 29 30" fill="none" xmlns="http://www.w3.org/2000/svg">
<path d="M6.40002 11.5288L11.0936 21.9223M15.3668 24.1734L21.3181 21.2071M13.4622 22.0996L17.5685 10.2406M23.2332 6.80227C22.7209 8.89703 20.6074 10.1799 18.5127 9.66752C16.4179 9.15519 15.1351 7.04172 15.6474 4.94695C16.1597 2.85218 18.2732 1.56937 20.368 2.0817C22.4627 2.59403 23.7456 4.7075 23.2332 6.80227ZM8.85307 9.71689C8.34074 11.8117 6.22727 13.0945 4.1325 12.5821C2.03773 12.0698 0.754912 9.95634 1.26724 7.86157C1.77957 5.76681 3.89305 4.48399 5.98781 4.99632C8.08258 5.50865 9.3654 7.62212 8.85307 9.71689ZM16.1337 25.9688C15.6213 28.0636 13.5079 29.3464 11.4131 28.8341C9.31832 28.3217 8.0355 26.2083 8.54783 24.1135C9.06016 22.0187 11.1736 20.7359 13.2684 21.2482C15.3632 21.7606 16.646 23.874 16.1337 25.9688ZM27.8505 20.7949C27.3382 22.8897 25.2247 24.1725 23.13 23.6602C21.0352 23.1478 19.7524 21.0344 20.2647 18.9396C20.777 16.8448 22.8905 15.562 24.9853 16.0743C27.0801 16.5867 28.3629 18.7001 27.8505 20.7949Z" stroke="white" stroke-width="2"/>
</svg>
