<svg width="26" height="26" viewBox="0 0 26 26" fill="none" xmlns="http://www.w3.org/2000/svg">
<path d="M1 6.33333C1 3.38781 3.38781 1 6.33333 1H19.6667C22.6122 1 25 3.38781 25 6.33333V19.6667C25 22.6122 22.6122 25 19.6667 25H6.33333C3.38781 25 1 22.6122 1 19.6667V6.33333Z" stroke="white" stroke-width="2"/>
<path d="M19 13C19 16.3137 16.3137 19 13 19C9.68629 19 7 16.3137 7 13C7 9.68629 9.68629 7 13 7C16.3137 7 19 9.68629 19 13Z" stroke="white" stroke-width="2"/>
<path d="M20.3333 5.66667C20.3333 6.03486 20.0349 6.33333 19.6667 6.33333C19.2985 6.33333 19 6.03486 19 5.66667C19 5.29848 19.2985 5 19.6667 5C20.0349 5 20.3333 5.29848 20.3333 5.66667Z" stroke="white" stroke-width="2"/>
</svg>
