<svg width="24" height="24" viewBox="0 0 24 24" fill="none" xmlns="http://www.w3.org/2000/svg">
<path d="M9.66667 7.33333C13.2958 7.43192 16.2113 7.79809 18.8028 9.11264C19.169 9.30041 19.6104 9.56801 19.7559 9.90605C19.892 10.2206 19.8122 10.8779 19.5822 11.0422C19.2582 11.2769 18.6056 11.3896 18.2676 11.2159C15.6009 9.83557 12.7605 9.39425 9.81687 9.51163C8.63847 9.55859 7.45536 9.77924 6.29571 10.0046C5.53984 10.1548 4.91542 10.0703 4.69477 9.29096C4.45533 8.46467 5.04219 8.04213 5.74642 7.91067C7.32857 7.629 8.66667 7.33333 9.66667 7.33333ZM10.3333 11C13 11 15.3474 11.5446 17.5728 12.8122C17.939 13.0188 18.324 13.5212 18.3615 13.9155C18.4226 14.6197 17.615 14.8592 16.7793 14.4132C13.892 12.8779 10.8357 12.5352 7.64787 13.0751C7.29105 13.1362 6.91754 13.2606 6.59151 13.2864C6 13.3333 5.66667 13.3333 5.41782 12.6902C5.33333 12 5.84505 11.6948 6.1643 11.615C7.5258 11.277 8.67136 11.1409 10.3333 11ZM9.84979 14.446C12.5446 14.4883 14.5353 14.9014 16.3616 15.9343C16.8358 16.2019 17.3945 16.5587 16.9344 17.1361C16.7513 17.3662 16.0048 17.3944 15.6761 17.2159C13.3193 15.9577 10.8217 15.8028 8.2489 16.1267C7.82167 16.1784 7.34736 16.3381 6.66667 16.3333C6.34736 16.3381 6 16.3333 5.85449 15.8592C5.85449 15.3911 6.32868 15.0141 6.64322 14.9484C7.89206 14.6714 9 14.446 9.84979 14.446ZM24 12C24 15.3099 22.8263 18.1409 20.4836 20.4836C18.1408 22.8263 15.3145 24 12 24C8.69012 24 5.85911 22.8263 3.51642 20.4836C1.17373 18.1409 0 15.3145 0 12C0 8.69014 1.17371 5.85911 3.51642 3.51642C5.86384 1.17369 8.69014 0 12 0C15.3099 0 18.1409 1.17371 20.4836 3.51642C22.8263 5.85916 24 8.69014 24 12ZM22.4977 12C22.4977 9.09389 21.4743 6.61972 19.4274 4.5728C17.3851 2.52584 14.9063 1.50238 12.0001 1.50238C9.09872 1.50238 6.61984 2.52586 4.5729 4.57278C2.52596 6.6197 1.5025 9.09389 1.5025 12C1.5025 14.9061 2.52598 17.3897 4.5729 19.4507C6.61986 21.5118 9.09401 22.5446 12.0001 22.5446C14.9062 22.5446 17.3804 21.5118 19.4273 19.4507C21.4743 17.3897 22.4977 14.9061 22.4977 12Z" fill="white"/>
</svg>
