<svg width="30" height="30" viewBox="0 0 30 30" fill="none" xmlns="http://www.w3.org/2000/svg">
<path d="M7.14225 11.5288L11.8359 21.9223M16.1091 24.1734L22.0603 21.2071M14.2044 22.0996L18.3108 10.2406M23.9755 6.80227C23.4631 8.89703 21.3497 10.1799 19.2549 9.66752C17.1601 9.15519 15.8773 7.04172 16.3896 4.94695C16.902 2.85218 19.0154 1.56936 21.1102 2.0817C23.205 2.59403 24.4878 4.7075 23.9755 6.80227ZM9.5953 9.71689C9.08297 11.8117 6.9695 13.0945 4.87473 12.5821C2.77996 12.0698 1.49714 9.95634 2.00948 7.86157C2.52181 5.7668 4.63528 4.48399 6.73005 4.99632C8.82481 5.50865 10.1076 7.62212 9.5953 9.71689ZM16.8759 25.9688C16.3636 28.0636 14.2501 29.3464 12.1553 28.8341C10.0605 28.3217 8.77773 26.2083 9.29006 24.1135C9.80239 22.0187 11.9159 20.7359 14.0106 21.2482C16.1054 21.7606 17.3882 23.874 16.8759 25.9688ZM28.5928 20.7949C28.0804 22.8897 25.967 24.1725 23.8722 23.6602C21.7774 23.1478 20.4946 21.0344 21.0069 18.9396C21.5193 16.8448 23.6328 15.562 25.7275 16.0743C27.8223 16.5867 29.1051 18.7001 28.5928 20.7949Z" stroke="white" stroke-width="2"/>
</svg>
