<svg width="39" height="29" viewBox="0 0 39 29" fill="none" xmlns="http://www.w3.org/2000/svg">
<path d="M1 9C1 7.89543 1.89543 7 3 7H21C22.1046 7 23 7.89543 23 9V21.4348C23 22.5394 22.1046 23.4348 21 23.4348H11.2667L6.86667 28V23.4348H3C1.89543 23.4348 1 22.5394 1 21.4348V9Z" stroke="white" stroke-width="2" stroke-linecap="round" stroke-linejoin="round"/>
<path d="M5 13H13.8M5 17H17" stroke="white" stroke-width="2" stroke-linecap="round"/>
<g filter="url(#filter0_d_332_96)">
<path d="M37 6C37 3.79086 35.2091 2 33 2H21C18.7909 2 17 3.79086 17 6V13.6522C17 15.8613 18.7909 17.6522 21 17.6522H27.2278C27.5075 17.6522 27.7744 17.7693 27.9638 17.9751L30.7987 21.0566C31.1071 21.3918 31.6667 21.1736 31.6667 20.718V17.8522C31.6667 17.7417 31.7562 17.6522 31.8667 17.6522H33C35.2091 17.6522 37 15.8613 37 13.6522V6Z" fill="white"/>
</g>
<defs>
<filter id="filter0_d_332_96" x="15" y="0" width="24" height="23.219" filterUnits="userSpaceOnUse" color-interpolation-filters="sRGB">
<feFlood flood-opacity="0" result="BackgroundImageFix"/>
<feColorMatrix in="SourceAlpha" type="matrix" values="0 0 0 0 0 0 0 0 0 0 0 0 0 0 0 0 0 0 127 0" result="hardAlpha"/>
<feOffset/>
<feGaussianBlur stdDeviation="1"/>
<feComposite in2="hardAlpha" operator="out"/>
<feColorMatrix type="matrix" values="0 0 0 0 0 0 0 0 0 0 0 0 0 0 0 0 0 0 0.25 0"/>
<feBlend mode="normal" in2="BackgroundImageFix" result="effect1_dropShadow_332_96"/>
<feBlend mode="normal" in="SourceGraphic" in2="effect1_dropShadow_332_96" result="shape"/>
</filter>
</defs>
</svg>
