<svg width="41" height="40" viewBox="0 0 41 40" fill="none" xmlns="http://www.w3.org/2000/svg">
<path d="M20.8978 1.33483L24.2465 5.6866C24.6241 6.17728 25.2644 6.38555 25.8584 6.21093L31.1167 4.66508C31.4311 4.57264 31.748 4.80266 31.7575 5.13028L31.9172 10.6332C31.9351 11.2503 32.3292 11.7934 32.9103 12.0017L38.0769 13.8542C38.3848 13.9646 38.5055 14.336 38.3215 14.6063L35.2241 19.1558C34.8773 19.6652 34.8773 20.3348 35.2241 20.8442L38.3215 25.3937C38.5055 25.664 38.3848 26.0354 38.0769 26.1458L32.9103 27.9983C32.3292 28.2066 31.9351 28.7497 31.9172 29.3668L31.7575 34.8697C31.748 35.1973 31.4311 35.4274 31.1167 35.3349L25.8584 33.7891C25.2644 33.6144 24.6241 33.8227 24.2465 34.3134L20.8978 38.6652C20.6976 38.9253 20.3054 38.9253 20.1053 38.6652L16.7566 34.3134C16.379 33.8227 15.7387 33.6144 15.1447 33.7891L9.88638 35.3349C9.57194 35.4274 9.25508 35.1973 9.24557 34.8697L9.08591 29.3668C9.06801 28.7497 8.6739 28.2066 8.09281 27.9983L2.92615 26.1458C2.6183 26.0354 2.49755 25.664 2.68159 25.3937L5.77898 20.8442C6.12575 20.3348 6.12575 19.6652 5.77898 19.1558L2.68159 14.6063C2.49755 14.336 2.6183 13.9646 2.92615 13.8542L8.09281 12.0017C8.6739 11.7934 9.06801 11.2503 9.08591 10.6332L9.24557 5.13028C9.25508 4.80266 9.57194 4.57264 9.88638 4.66508L15.1447 6.21093C15.7387 6.38555 16.379 6.17728 16.7566 5.6866L20.1053 1.33483C20.3054 1.07473 20.6976 1.07473 20.8978 1.33483Z" stroke="#D9D9D9"/>
<path d="M18.6 16.34C18.6 17.6733 18.1134 18.9733 17.14 20.24C16.1667 21.4933 14.7 22.84 12.74 24.28H18.36V26H9.58004V24.74C11.3267 23.3133 12.66 22.14 13.58 21.22C14.5134 20.3 15.1867 19.4467 15.6 18.66C16.0134 17.8733 16.22 17.04 16.22 16.16C16.22 15.4 16.02 14.8 15.62 14.36C15.2334 13.92 14.68 13.7 13.96 13.7C13.1867 13.7 12.58 13.96 12.14 14.48C11.7 14.9867 11.44 15.74 11.36 16.74C10.64 16.74 10.1334 16.62 9.84004 16.38C9.54671 16.14 9.40004 15.7533 9.40004 15.22C9.40004 14.6867 9.58671 14.1733 9.96004 13.68C10.3467 13.1733 10.8867 12.7667 11.58 12.46C12.2734 12.1533 13.0667 12 13.96 12C15.3734 12 16.5 12.3733 17.34 13.12C18.18 13.8533 18.6 14.9267 18.6 16.34ZM25.3822 17.02C26.2089 17.02 26.9556 17.1867 27.6222 17.52C28.2889 17.8533 28.8156 18.3733 29.2022 19.08C29.6022 19.7733 29.8022 20.64 29.8022 21.68C29.8022 22.5867 29.6022 23.38 29.2022 24.06C28.8022 24.7267 28.2422 25.24 27.5222 25.6C26.8156 25.96 25.9956 26.14 25.0622 26.14C24.0222 26.14 23.1222 25.9 22.3622 25.42C21.6022 24.9267 21.0222 24.2533 20.6222 23.4C20.2222 22.5333 20.0222 21.5467 20.0222 20.44C20.0222 18.88 20.2956 17.4467 20.8422 16.14C21.4022 14.8333 22.1689 13.8 23.1422 13.04C24.1156 12.28 25.2022 11.9 26.4022 11.9C26.9489 11.9 27.3422 12.04 27.5822 12.32C27.8222 12.6 27.9422 13.0133 27.9422 13.56C26.5689 13.56 25.4289 13.94 24.5222 14.7C23.6289 15.46 23.0156 16.5267 22.6822 17.9C23.5089 17.3133 24.4089 17.02 25.3822 17.02ZM25.1022 24.42C25.8489 24.42 26.4222 24.16 26.8222 23.64C27.2356 23.12 27.4422 22.42 27.4422 21.54C27.4422 19.6733 26.6222 18.74 24.9822 18.74C24.0356 18.74 23.1756 19.0733 22.4022 19.74C22.3889 19.8867 22.3822 20.12 22.3822 20.44C22.3822 21.6933 22.5956 22.6733 23.0222 23.38C23.4622 24.0733 24.1556 24.42 25.1022 24.42Z" fill="#28434F"/>
</svg>
