<svg width="36" height="35" viewBox="0 0 36 35" fill="none" xmlns="http://www.w3.org/2000/svg">
<g clip-path="url(#clip0_84_251)">
<path d="M7.56 11.2C3.40524 11.2 0 14.5005 0 18.529C0 20.09 0.51264 21.5408 1.3806 22.7332L6.63768 31.5686C7.37388 32.5038 7.86348 32.3264 8.47584 31.5196L14.274 21.9261C14.391 21.7196 14.4828 21.5005 14.5631 21.2765C14.931 20.4047 15.1202 19.4714 15.12 18.529C15.12 14.5005 11.7158 11.2 7.56 11.2ZM7.56 14.6342C9.79776 14.6342 11.5776 16.3601 11.5776 18.5294C11.5776 20.6987 9.79776 22.4238 7.56 22.4238C5.3226 22.4238 3.5424 20.6983 3.5424 18.5294C3.5424 16.3601 5.3226 14.6342 7.56 14.6342ZM31.59 0C29.1665 0 27.18 1.92535 27.18 4.2756C27.18 5.18595 27.4788 6.03225 27.9853 6.7277L31.0522 11.8818C31.4816 12.4271 31.7671 12.3235 32.1242 11.8531L35.5064 6.2566C35.5748 6.13655 35.6285 6.0088 35.6749 5.8779C35.8896 5.36949 36.0001 4.82519 36 4.2756C36 1.925 34.0142 0 31.59 0ZM31.59 2.0034C32.8954 2.0034 33.9336 3.01 33.9336 4.2756C33.9336 5.54085 32.8954 6.5471 31.59 6.5471C30.285 6.5471 29.2464 5.54085 29.2464 4.2756C29.2464 3.01 30.285 2.0034 31.59 2.0034Z" fill="white"/>
<path fill-rule="evenodd" clip-rule="evenodd" d="M31.7554 13.0942C30.9464 13.1117 30.1354 13.145 29.3228 13.2034L29.4481 15.1396C30.2286 15.0847 31.0104 15.0493 31.7928 15.0336L31.7554 13.0942ZM27.4444 13.3812C26.1952 13.5321 24.9352 13.747 23.6896 14.0924L24.1586 15.9688C25.2905 15.6552 26.4634 15.4525 27.6546 15.3087L27.4444 13.3812ZM21.8244 14.742C21.4512 14.9022 21.0898 15.0873 20.743 15.2961L20.7415 15.2978L20.7394 15.2985C20.2444 15.6016 19.7227 15.9863 19.2968 16.5452C18.9883 16.9502 18.736 17.4622 18.6769 18.0677L20.5111 18.2655C20.5248 18.1234 20.5997 17.9358 20.7343 17.7594H20.735V17.7587C20.9521 17.4731 21.2776 17.2137 21.6646 16.9764L21.666 16.9757C21.9419 16.8102 22.2291 16.6633 22.5257 16.5361L21.8244 14.742ZM20.8801 19.1293L19.691 20.6115C19.9729 20.8621 20.2685 21.0546 20.554 21.2156L20.5576 21.2174L20.5612 21.2195C21.5087 21.7434 22.4857 22.0392 23.3915 22.3199L23.912 20.4586C23.0066 20.1779 22.1531 19.907 21.4216 19.5031C21.212 19.3848 21.0284 19.2612 20.8801 19.1293ZM25.6807 20.9822L25.1724 22.8466L25.4129 22.9194L25.7081 23.0111C26.6851 23.3202 27.6211 23.6502 28.4578 24.107L29.3066 22.385C28.295 21.8323 27.2449 21.4711 26.233 21.1512L26.2301 21.1505L25.927 21.0564L25.6807 20.9822ZM31.0328 23.6772L29.7286 25.0492C30.0367 25.3736 30.2675 25.7639 30.3798 26.1671L30.3805 26.1692L30.3812 26.1723C30.5152 26.6431 30.5155 27.1968 30.4108 27.7561L32.2194 28.1313C32.367 27.3417 32.3908 26.4747 32.1481 25.619C31.9368 24.8623 31.5336 24.205 31.0328 23.6772ZM29.7793 28.9251C29.58 29.1297 29.3598 29.3141 29.122 29.4753H29.1212C28.4732 29.9184 27.7216 30.2523 26.9231 30.5393L27.5185 32.3747C28.3919 32.0607 29.2886 31.6757 30.1267 31.1024L30.1289 31.1007L30.13 31.1C30.4741 30.8657 30.7925 30.5974 31.08 30.2995L29.7793 28.9251ZM25.2289 31.0562C24.0722 31.3586 22.89 31.5889 21.6934 31.7842L21.9756 33.7019C23.2072 33.5006 24.4438 33.2602 25.6728 32.9389L25.2289 31.0562ZM19.893 32.0488C18.6884 32.2088 17.4774 32.3393 16.2628 32.4506L16.4219 34.3833C17.6552 34.2706 18.8908 34.138 20.1245 33.9738L19.893 32.0488ZM14.4372 32.6029C13.22 32.6967 12 32.773 10.7789 32.8374L10.871 34.775C12.104 34.7102 13.3381 34.6329 14.5718 34.5377L14.4372 32.6029ZM8.94396 32.9249C8.21208 32.9581 7.4784 32.9854 6.74292 33.0106L6.8034 34.95C7.54348 34.9253 8.28341 34.8966 9.02316 34.8639L8.94396 32.9249Z" fill="white"/>
</g>
<defs>
<clipPath id="clip0_84_251">
<rect width="36" height="35" fill="white"/>
</clipPath>
</defs>
</svg>
