<svg width="246" height="104" viewBox="0 0 246 104" fill="none" xmlns="http://www.w3.org/2000/svg">
<g clip-path="url(#clip0_88_340)">
<rect width="246" height="104" fill="#F8F8F8"/>
<path d="M74.7558 102.438V82.1875H76.3589L76.5276 85.3094H76.6542C77.5542 84.2687 78.5526 83.4109 79.6495 82.7359C80.7745 82.0328 81.8995 81.6812 83.0245 81.6812C84.6558 81.6812 85.9073 82.0609 86.7792 82.8203C87.6511 83.5797 88.2698 84.5781 88.6355 85.8156C89.7886 84.55 90.9276 83.5516 92.0526 82.8203C93.2058 82.0609 94.3589 81.6812 95.512 81.6812C99.562 81.6812 101.587 84.2687 101.587 89.4437V102.438H99.6886V89.6969C99.6886 85.4781 98.1839 83.3687 95.1745 83.3687C93.3745 83.3687 91.3495 84.6344 89.0995 87.1656V102.438H87.2433V89.6969C87.2433 85.4781 85.7245 83.3687 82.687 83.3687C80.887 83.3687 78.862 84.6344 76.612 87.1656V102.438H74.7558ZM117.092 102.944C114.504 102.944 112.297 102.016 110.468 100.159C108.64 98.275 107.726 95.6734 107.726 92.3547C107.726 89.0359 108.626 86.4344 110.426 84.55C112.254 82.6375 114.293 81.6812 116.543 81.6812C118.934 81.6812 120.818 82.4969 122.197 84.1281C123.603 85.7594 124.306 88.0656 124.306 91.0469C124.306 91.3 124.292 91.5531 124.264 91.8062C124.264 92.0594 124.25 92.3125 124.222 92.5656H109.625C109.653 95.125 110.356 97.2344 111.734 98.8937C113.14 100.525 114.983 101.341 117.261 101.341C118.358 101.341 119.342 101.172 120.214 100.834C121.114 100.497 121.943 100.061 122.703 99.5266L123.462 100.961C122.647 101.439 121.747 101.889 120.762 102.311C119.778 102.733 118.554 102.944 117.092 102.944ZM109.625 91.0469H122.534C122.534 88.4594 121.986 86.5187 120.889 85.225C119.82 83.9312 118.386 83.2844 116.586 83.2844C114.842 83.2844 113.295 83.9734 111.945 85.3516C110.595 86.7297 109.822 88.6281 109.625 91.0469ZM130.229 102.438V82.1875H131.832L132.001 85.3094H132.127C133.168 84.2687 134.237 83.4109 135.334 82.7359C136.431 82.0328 137.682 81.6812 139.088 81.6812C143.167 81.6812 145.206 84.2687 145.206 89.4437V102.438H143.349V89.6969C143.349 87.5594 142.984 85.9703 142.252 84.9297C141.549 83.8891 140.368 83.3687 138.709 83.3687C137.499 83.3687 136.402 83.6922 135.418 84.3391C134.434 84.9578 133.323 85.9 132.085 87.1656V102.438H130.229ZM158.631 102.944C156.662 102.944 155.326 102.381 154.623 101.256C153.92 100.131 153.568 98.6547 153.568 96.8266V83.7906H150.404V82.3562L153.61 82.1875L153.864 76.3234H155.467V82.1875H161.331V83.7906H155.467V96.9953C155.467 98.2891 155.692 99.3297 156.142 100.117C156.592 100.905 157.506 101.298 158.884 101.298C159.671 101.298 160.515 101.087 161.415 100.666L161.921 102.184C161.331 102.409 160.74 102.592 160.15 102.733C159.559 102.873 159.053 102.944 158.631 102.944ZM173.598 102.944C171.179 102.944 169.056 102.016 167.228 100.159C165.428 98.3031 164.528 95.7016 164.528 92.3547C164.528 88.9516 165.428 86.3219 167.228 84.4656C169.056 82.6094 171.179 81.6812 173.598 81.6812C176.045 81.6812 178.168 82.6094 179.968 84.4656C181.797 86.3219 182.711 88.9516 182.711 92.3547C182.711 95.7016 181.797 98.3031 179.968 100.159C178.168 102.016 176.045 102.944 173.598 102.944ZM173.598 101.298C175.651 101.298 177.353 100.483 178.703 98.8516C180.081 97.1922 180.77 95.0266 180.77 92.3547C180.77 89.6828 180.081 87.5172 178.703 85.8578C177.353 84.1703 175.651 83.3266 173.598 83.3266C171.545 83.3266 169.843 84.1703 168.493 85.8578C167.143 87.5172 166.468 89.6828 166.468 92.3547C166.468 95.0266 167.143 97.1922 168.493 98.8516C169.843 100.483 171.545 101.298 173.598 101.298ZM189.214 102.438V82.1875H190.817L190.986 85.9422H191.113C191.788 84.7047 192.603 83.6922 193.559 82.9047C194.544 82.0891 195.641 81.6812 196.85 81.6812C197.638 81.6812 198.313 81.8219 198.875 82.1031L198.453 83.7906C197.863 83.5656 197.244 83.4531 196.597 83.4531C195.697 83.4531 194.741 83.8469 193.728 84.6344C192.744 85.4219 191.858 86.7578 191.07 88.6422V102.438H189.214ZM203.996 77.2937C203.518 77.2937 203.11 77.1391 202.772 76.8297C202.463 76.5203 202.308 76.1266 202.308 75.6484C202.308 75.1141 202.463 74.7062 202.772 74.425C203.11 74.1156 203.518 73.9609 203.996 73.9609C204.474 73.9609 204.868 74.1156 205.177 74.425C205.515 74.7062 205.683 75.1141 205.683 75.6484C205.683 76.1266 205.515 76.5203 205.177 76.8297C204.868 77.1391 204.474 77.2937 203.996 77.2937ZM203.026 102.438V82.1875H204.882V102.438H203.026ZM217.855 101.341C219.008 101.341 220.119 101.059 221.188 100.497C222.285 99.9344 223.466 99.1187 224.732 98.05V91.1734C220.569 91.6516 217.658 92.3969 215.999 93.4094C214.368 94.3937 213.552 95.6875 213.552 97.2906C213.552 98.7531 213.974 99.7937 214.818 100.412C215.689 101.031 216.702 101.341 217.855 101.341ZM217.518 102.944C215.914 102.944 214.536 102.494 213.383 101.594C212.23 100.694 211.654 99.2875 211.654 97.375C211.654 95.125 212.708 93.4234 214.818 92.2703C216.927 91.0891 220.232 90.2453 224.732 89.7391C224.76 88.1922 224.464 86.7437 223.846 85.3937C223.227 84.0156 221.919 83.3266 219.922 83.3266C218.572 83.3266 217.335 83.5937 216.21 84.1281C215.085 84.6625 214.171 85.1828 213.468 85.6891L212.624 84.2969C213.327 83.7906 214.354 83.2281 215.704 82.6094C217.054 81.9906 218.544 81.6812 220.175 81.6812C222.566 81.6812 224.225 82.4406 225.154 83.9594C226.11 85.4781 226.588 87.3203 226.588 89.4859V102.438H224.985L224.816 99.8219H224.689C223.649 100.637 222.524 101.369 221.314 102.016C220.105 102.634 218.839 102.944 217.518 102.944ZM239.127 102.944C237.636 102.944 236.244 102.677 234.95 102.142C233.684 101.58 232.602 100.919 231.702 100.159L232.798 98.7672C233.67 99.4703 234.598 100.075 235.583 100.581C236.567 101.087 237.791 101.341 239.253 101.341C240.828 101.341 242.023 100.947 242.839 100.159C243.655 99.3437 244.062 98.4016 244.062 97.3328C244.062 96.0672 243.528 95.1109 242.459 94.4641C241.391 93.8172 240.28 93.2828 239.127 92.8609C237.58 92.3266 236.117 91.6656 234.739 90.8781C233.361 90.0906 232.672 88.825 232.672 87.0812C232.672 85.6187 233.234 84.3531 234.359 83.2844C235.484 82.2156 237.102 81.6812 239.211 81.6812C240.28 81.6812 241.32 81.8781 242.333 82.2719C243.373 82.6656 244.259 83.1719 244.991 83.7906L243.978 85.0984C243.303 84.5922 242.586 84.1703 241.827 83.8328C241.067 83.4672 240.167 83.2844 239.127 83.2844C237.552 83.2844 236.398 83.6641 235.667 84.4234C234.936 85.1828 234.57 86.0266 234.57 86.9547C234.57 88.1078 235.062 88.9656 236.047 89.5281C237.031 90.0906 238.128 90.5969 239.337 91.0469C240.378 91.4406 241.405 91.8625 242.417 92.3125C243.458 92.7625 244.302 93.3672 244.948 94.1266C245.623 94.8859 245.961 95.9266 245.961 97.2484C245.961 98.7672 245.37 100.103 244.189 101.256C243.008 102.381 241.32 102.944 239.127 102.944Z" fill="#BA4848"/>
<path d="M53.7229 34.4993H56.5671V103.781H53.7229V34.4993ZM65.0996 34.4993H67.9437V103.781H65.0996V34.4993ZM59.4113 34.4993H62.2554V103.781H59.4113V34.4993ZM50.8788 34.4993V69.0786C45.8752 70.9975 40.6872 71.9569 35.3149 71.9569C30.6537 71.9569 26.1899 71.0907 21.9237 69.3585C17.6575 67.6262 13.9048 65.2276 10.6656 62.1628C7.42641 59.0713 4.83243 55.2602 2.88366 50.7296C0.96122 46.1723 0 41.2553 0 35.9785C0 31.1014 0.934885 26.4508 2.80465 22.0268C4.70076 17.5761 7.2289 13.7518 10.3891 10.5537C13.5756 7.32895 17.3546 4.77048 21.7262 2.87828C26.1241 0.959434 30.7327 0 35.5519 0C41.5563 0 47.1393 1.4125 52.3009 4.23747C57.4625 7.06244 61.676 10.9001 64.9416 15.7506L62.5714 17.3096C59.5693 12.859 55.6849 9.34108 50.9183 6.75596C46.178 4.17084 41.0559 2.87828 35.5519 2.87828C31.1277 2.87828 26.8878 3.75776 22.8323 5.5167C18.803 7.249 15.3268 9.59425 12.4037 12.5525C9.48052 15.5107 7.14989 19.0419 5.4118 23.1461C3.70004 27.2237 2.84416 31.5011 2.84416 35.9785C2.84416 40.8022 3.72637 45.3062 5.4908 49.4904C7.28157 53.6745 9.6517 57.1791 12.6012 60.0041C15.577 62.829 19.0269 65.0544 22.9508 66.6801C26.8746 68.2791 30.9565 69.0786 35.1964 69.0786C39.647 69.0786 43.9264 68.3724 48.0346 66.9599V66.2703V65.5807V64.2015C44.1107 65.5341 39.9894 66.2003 35.6705 66.2003C32.5366 66.2003 29.4818 65.7606 26.506 64.8811C23.5565 63.975 20.8176 62.6558 18.2895 60.9235C15.7877 59.1646 13.5887 57.0858 11.6926 54.6872C9.82287 52.262 8.34813 49.4504 7.2684 46.2523C6.21501 43.0276 5.68831 39.6029 5.68831 35.9785C5.68831 30.5151 7.01822 25.4647 9.67803 20.8275C12.3642 16.1903 15.9984 12.5258 20.5806 9.83411C25.1629 7.11574 30.1533 5.75656 35.5519 5.75656C40.6082 5.75656 45.309 6.95584 49.6542 9.3544C53.9995 11.7263 57.5415 14.951 60.2803 19.0286L57.9102 20.5877C55.4347 16.9099 52.2219 14.0049 48.2716 11.8729C44.3478 9.71418 40.1079 8.63483 35.5519 8.63483C31.8914 8.63483 28.3889 9.3544 25.0444 10.7935C21.6999 12.2327 18.8162 14.1782 16.3934 16.63C13.9969 19.0553 12.0877 21.9602 10.6656 25.3448C9.24351 28.7295 8.53247 32.274 8.53247 35.9785C8.53247 39.3098 9.0065 42.4413 9.95455 45.3728C10.9289 48.2778 12.2588 50.8229 13.9443 53.0083C15.656 55.167 17.6443 57.0325 19.9091 58.6049C22.1739 60.1506 24.6362 61.3233 27.296 62.1228C29.9821 62.9223 32.7341 63.3221 35.5519 63.3221C39.9235 63.3221 44.0844 62.5758 48.0346 61.0834V58.2051C44.1371 59.7242 40.0684 60.4838 35.8285 60.4838C32.6156 60.4838 29.5476 59.9374 26.6245 58.8448C23.7013 57.7254 21.0942 56.153 18.803 54.1276C16.5382 52.1021 14.7343 49.517 13.3912 46.3722C12.0482 43.2274 11.3766 39.7629 11.3766 35.9785C11.3766 31.5544 12.4564 27.4635 14.6158 23.7058C16.7753 19.948 19.7116 16.9765 23.4248 14.7911C27.138 12.6058 31.1804 11.5131 35.5519 11.5131C39.6338 11.5131 43.426 12.4725 46.9286 14.3914C50.4574 16.3102 53.3279 18.922 55.54 22.2267L53.1699 23.7857C51.2211 20.9075 48.693 18.6288 45.5855 16.9498C42.5043 15.2442 39.1598 14.3914 35.5519 14.3914C31.6807 14.3914 28.1124 15.3641 24.8469 17.3096C21.5814 19.2285 18.9874 21.8402 17.0649 25.1449C15.1688 28.4496 14.2208 32.0608 14.2208 35.9785C14.2208 38.6968 14.6026 41.2286 15.3663 43.5739C16.1301 45.9192 17.1834 47.9446 18.5265 49.6503C19.8696 51.3559 21.4365 52.8084 23.2273 54.0076C25.0444 55.2069 26.9931 56.1131 29.0736 56.726C31.154 57.3123 33.3135 57.6055 35.5519 57.6055C40.0025 57.6055 44.1634 56.7127 48.0346 54.9271V52.1687C44.2951 53.8477 40.2527 54.6872 35.9075 54.6872C33.4057 54.6872 31.0487 54.3008 28.8366 53.5279C26.6245 52.7551 24.623 51.6224 22.8323 50.13C21.0678 48.6375 19.6589 46.6787 18.6055 44.2535C17.5785 41.8016 17.0649 39.0433 17.0649 35.9785C17.0649 33.4466 17.5521 31.0347 18.5265 28.7428C19.5009 26.4241 20.8176 24.4254 22.4767 22.7464C24.1358 21.0674 26.0978 19.7348 28.3626 18.7487C30.6537 17.7627 33.0501 17.2697 35.5519 17.2697C38.6858 17.2697 41.5958 18.0159 44.2819 19.5083C46.9681 20.9741 49.1539 22.9729 50.8393 25.5047L48.5087 27.0638C47.0866 24.9317 45.23 23.2527 42.9389 22.0268C40.6741 20.7742 38.2118 20.1479 35.5519 20.1479C31.233 20.1479 27.5462 21.6937 24.4913 24.7851C21.4365 27.8766 19.9091 31.6077 19.9091 35.9785C19.9091 38.6702 20.3436 41.0554 21.2127 43.1342C22.0817 45.1863 23.2668 46.8386 24.7679 48.0912C26.2953 49.3171 27.9807 50.2499 29.8241 50.8895C31.6939 51.5025 33.6953 51.809 35.8285 51.809C40.2 51.809 48.0346 52.1687 48.0346 34.4993H50.8788Z" fill="#BA4848"/>
<path d="M120.995 39.9761V2.87828H123.839V39.9761C123.839 44.027 122.259 47.4916 119.099 50.3698C115.939 53.2481 112.147 54.6872 107.722 54.6872C103.298 54.6872 99.506 53.2481 96.3458 50.3698C93.1856 47.4916 91.6055 44.027 91.6055 39.9761V2.87828H94.4497V39.9761C94.4497 43.2275 95.7401 46.0124 98.3209 48.331C100.928 50.6497 104.062 51.809 107.722 51.809C111.383 51.809 114.504 50.6497 117.084 48.331C119.692 46.0124 120.995 43.2275 120.995 39.9761ZM126.683 39.9761V2.87828H129.528V39.9761C129.528 42.7477 128.948 45.3995 127.79 47.9313C126.631 50.4365 125.077 52.6085 123.128 54.4474C121.179 56.2863 118.862 57.7521 116.176 58.8448C113.49 59.9108 110.672 60.4438 107.722 60.4438C104.773 60.4438 101.955 59.9108 99.2689 58.8448C96.5828 57.7521 94.2653 56.2863 92.3166 54.4474C90.3678 52.6085 88.814 50.4365 87.6553 47.9313C86.4966 45.3995 85.9172 42.7477 85.9172 39.9761V2.87828H88.7614V39.9761C88.7614 43.1475 89.6041 46.0924 91.2895 48.8108C93.0013 51.5025 95.3056 53.6345 98.2024 55.2069C101.126 56.7793 104.299 57.5655 107.722 57.5655C111.146 57.5655 114.306 56.7793 117.203 55.2069C120.126 53.6345 122.43 51.5025 124.116 48.8108C125.828 46.0924 126.683 43.1475 126.683 39.9761ZM132.372 39.9761V2.87828H135.216V39.9761C135.216 43.5206 134.479 46.9186 133.004 50.17C131.555 53.3947 129.607 56.1797 127.157 58.5249C124.708 60.8702 121.785 62.7358 118.388 64.1216C114.991 65.5074 111.436 66.2003 107.722 66.2003C104.009 66.2003 100.454 65.5074 97.0568 64.1216C93.6596 62.7358 90.7365 60.8702 88.2873 58.5249C85.8382 56.1797 83.8763 53.3947 82.4015 50.17C80.9531 46.9186 80.2289 43.5206 80.2289 39.9761V2.87828H83.0731V39.9761C83.0731 44.1869 84.1791 48.0912 86.3912 51.689C88.6034 55.2602 91.5924 58.0985 95.3582 60.2039C99.1504 62.2827 103.272 63.3221 107.722 63.3221C112.173 63.3221 116.281 62.2827 120.047 60.2039C123.839 58.0985 126.841 55.2602 129.054 51.689C131.266 48.0912 132.372 44.1869 132.372 39.9761ZM138.06 39.9761V2.87828H140.904V39.9761C140.904 45.7326 139.416 51.0761 136.44 56.0064C133.465 60.9102 129.422 64.8012 124.313 67.6795C119.231 70.5311 113.7 71.9569 107.722 71.9569C101.744 71.9569 96.2009 70.5311 91.092 67.6795C86.0094 64.8012 81.9802 60.9102 79.0043 56.0064C76.0285 51.0761 74.5406 45.7326 74.5406 39.9761V2.87828H77.3847V39.9761C77.3847 43.8937 78.188 47.6514 79.7944 51.2493C81.4008 54.8471 83.5602 57.9519 86.2727 60.5637C88.9852 63.1488 92.2112 65.2143 95.9508 66.76C99.7166 68.3058 103.641 69.0786 107.722 69.0786C111.804 69.0786 115.715 68.3058 119.455 66.76C123.22 65.2143 126.46 63.1488 129.172 60.5637C131.885 57.9519 134.044 54.8471 135.65 51.2493C137.257 47.6514 138.06 43.8937 138.06 39.9761Z" fill="#BA4848"/>
<path d="M165.238 2.87828H168.082V69.0786H165.238V2.87828ZM159.549 2.87828H162.393V69.0786H159.549V2.87828ZM153.861 2.87828H156.705V69.0786H153.861V2.87828ZM148.173 2.87828H151.017V69.0786H148.173V2.87828Z" fill="#BA4848"/>
<path d="M202.157 49.6503L203.302 46.772H216.225L217.371 49.6503H202.157ZM199.945 55.4068L201.051 52.5285H218.438L219.662 55.4068H199.945ZM197.733 61.1634L198.839 58.2851H220.689L221.874 61.1634H197.733ZM176.298 69.0786H173.217L199.091 2.87828H202.172L228.006 69.0786H224.965L200.632 6.75596L176.298 69.0786ZM202.054 10.8963L203.673 14.5741L182.382 69.0786H179.34L202.054 10.8963ZM205.214 18.4918L206.715 22.4494L188.544 69.0786H185.463L205.214 18.4918ZM208.216 26.407L209.717 30.4446L194.627 69.0786H191.586L208.216 26.407ZM246.375 69.0786H243.294L217.459 2.87828H220.501L246.375 69.0786ZM214.378 2.87828L240.252 69.0786H237.21L211.336 2.87828H214.378ZM208.255 2.87828L234.129 69.0786H231.048L205.214 2.87828H208.255Z" fill="#BA4848"/>
<path d="M48.0346 34.4993H50.8788L50.8788 103.781H48.0346V34.4993Z" fill="#BA4848"/>
</g>
<defs>
<clipPath id="clip0_88_340">
<rect width="246" height="104" fill="white"/>
</clipPath>
</defs>
</svg>
